<svg xmlns="http://www.w3.org/2000/svg" xmlns:xlink="http://www.w3.org/1999/xlink" width="1080" zoomAndPan="magnify" viewBox="0 0 810 809.999993" height="1080" preserveAspectRatio="xMidYMid meet" version="1.0"><defs><g/><clipPath id="2682dd35ed"><rect x="0" width="494" y="0" height="304"/></clipPath></defs><rect x="-81" width="972" fill="#ffffff" y="-80.999999" height="971.999992" fill-opacity="1"/><rect x="-81" width="972" fill="#ffffff" y="-80.999999" height="971.999992" fill-opacity="1"/><g transform="matrix(1, 0, 0, 1, 158, 253)"><g clip-path="url(#2682dd35ed)"><g fill="#000000" fill-opacity="1"><g transform="translate(0.924483, 244.568959)"><g><path d="M 149.8125 -190.859375 L 225.828125 -190.859375 L 157.296875 -112.359375 L 227.203125 0 L 154.796875 0 L 115.125 -69.90625 L 81.84375 -42.71875 L 81.84375 0 L 20.53125 0 L 20.53125 -190.859375 L 81.84375 -190.859375 L 81.84375 -109.296875 Z M 149.8125 -190.859375 "/></g></g></g><g fill="#000000" fill-opacity="1"><g transform="translate(232.013138, 244.568959)"><g><path d="M 138.984375 0 L 77.671875 0 L 77.671875 -74.078125 L 1.9375 -190.859375 L 72.40625 -190.859375 L 109.03125 -127.34375 L 110.140625 -127.34375 L 146.75 -190.859375 L 213.609375 -190.859375 L 138.984375 -74.078125 Z M 138.984375 0 "/></g></g></g><g fill="#000000" fill-opacity="1"><g transform="translate(400.682838, 244.568959)"><g><path d="M 16.921875 0 L 16.921875 -55.203125 L 75.734375 -55.203125 L 75.734375 0 Z M 16.921875 0 "/></g></g></g></g></g></svg>